<svg id="Layer_1" enable-background="new 0 0 512 512" height="512" viewBox="0 0 512 512" width="512" xmlns="http://www.w3.org/2000/svg"><g><ellipse clip-rule="evenodd" cx="266.403" cy="256" fill="#f9f9f9" fill-rule="evenodd" rx="160.236" ry="160.236" transform="matrix(.707 -.707 .707 .707 -102.992 263.356)"/><path clip-rule="evenodd" d="m266.403 95.763v320.473c88.255 0 160.236-71.981 160.236-160.237 0-88.255-71.981-160.236-160.236-160.236z" fill="#e2dff4" fill-rule="evenodd"/><g><path d="m492.692 340.258c-7.569-3.367-16.435.039-19.802 7.607-36.253 81.485-117.303 134.135-206.488 134.135-124.617 0-226-101.383-226-226s101.383-226 226-226c48.314 0 95.402 15.574 134.12 44.107l-11.415-.33c-8.275-.216-15.187 6.28-15.426 14.562-.239 8.28 6.28 15.188 14.561 15.427l60.227 1.738c.145.004.289.006.434.006 4.822 0 9.361-2.321 12.184-6.252 2.907-4.049 3.613-9.277 1.884-13.952l-20.903-56.51c-2.873-7.769-11.5-11.737-19.272-8.864-7.77 2.874-11.738 11.503-8.864 19.272l3.823 10.335c-43.75-32.053-96.863-49.539-151.353-49.539-68.38 0-132.667 26.629-181.02 74.98-48.351 48.353-74.98 112.64-74.98 181.02s26.629 132.667 74.981 181.02c48.352 48.351 112.639 74.98 181.019 74.98 101.022 0 192.833-59.64 233.896-151.939 3.369-7.57-.038-16.435-7.606-19.803z" fill="#4ff6d8"/></g><g><path d="m306.902 311.5c-3.839 0-7.677-1.464-10.606-4.394l-40.499-40.5c-2.813-2.812-4.394-6.628-4.394-10.606v-66c0-8.284 6.716-15 15-15s15 6.716 15 15v59.787l36.106 36.106c5.858 5.857 5.858 15.355 0 21.213-2.929 2.929-6.768 4.394-10.607 4.394z" fill="#00607f"/></g><path d="m266.402 80.764c-96.625 0-175.236 78.61-175.236 175.236s78.611 175.236 175.236 175.236 175.237-78.61 175.237-175.236-78.611-175.236-175.237-175.236zm139.286 190.236h5.18c-2.97 28.815-14.404 55.153-31.76 76.493l-3.609-3.609c-5.858-5.859-15.355-5.857-21.213 0-5.857 5.858-5.857 15.355 0 21.213l3.609 3.609c-21.339 17.356-47.678 28.79-76.492 31.76v-5.179c0-8.284-6.716-15-15-15s-15 6.716-15 15v5.179c-28.815-2.97-55.153-14.404-76.492-31.76l3.608-3.608c5.858-5.858 5.858-15.355.001-21.214-5.858-5.856-15.355-5.857-21.213-.001l-3.61 3.609c-17.356-21.339-28.79-47.678-31.76-76.492h5.179c8.284 0 15-6.716 15-15s-6.716-15-15-15h-5.179c2.97-28.815 14.404-55.153 31.76-76.492l3.608 3.609c2.929 2.93 6.768 4.394 10.607 4.394 3.838 0 7.678-1.465 10.606-4.394 5.858-5.857 5.858-15.354 0-21.213l-3.609-3.609c21.339-17.356 47.678-28.79 76.492-31.76v5.179c0 8.284 6.716 15 15 15s15-6.716 15-15v-5.179c28.815 2.97 55.153 14.404 76.492 31.76l-3.609 3.609c-5.858 5.857-5.858 15.355 0 21.213 2.929 2.929 6.768 4.394 10.606 4.394s7.678-1.465 10.606-4.394l3.609-3.609c17.356 21.339 28.79 47.678 31.76 76.493h-5.18c-8.284 0-15 6.716-15 15s6.719 14.999 15.003 14.999z" fill="#4793ff"/><g fill="#00ddc1"><path d="m417.754 49.539c-43.749-32.053-96.862-49.539-151.352-49.539v30c48.314 0 95.402 15.574 134.12 44.107l-11.415-.33c-8.275-.216-15.187 6.28-15.426 14.562-.239 8.28 6.28 15.188 14.561 15.427l60.227 1.738c.145.004.289.006.434.006 4.822 0 9.361-2.321 12.184-6.252 2.907-4.049 3.613-9.277 1.884-13.952l-20.903-56.51c-2.873-7.769-11.5-11.737-19.272-8.864-7.77 2.874-11.738 11.503-8.864 19.272z"/><path d="m492.692 340.258c-7.569-3.367-16.435.039-19.802 7.607-36.253 81.485-117.303 134.135-206.488 134.135v30c101.022 0 192.833-59.64 233.896-151.939 3.369-7.57-.038-16.435-7.606-19.803z"/></g><path d="m317.509 285.894-36.106-36.106v-59.788c0-8.284-6.716-15-15-15v102.213l29.894 29.894c2.929 2.93 6.767 4.394 10.606 4.394 3.838 0 7.678-1.465 10.606-4.394 5.858-5.858 5.858-15.356 0-21.213z" fill="#002c3c"/><path d="m266.402 80.764v50.95c8.284 0 15-6.716 15-15v-5.179c28.815 2.97 55.153 14.404 76.492 31.76l-3.609 3.609c-5.858 5.857-5.858 15.355 0 21.213 2.929 2.929 6.768 4.394 10.606 4.394s7.678-1.465 10.606-4.394l3.609-3.609c17.356 21.339 28.79 47.678 31.76 76.493h-5.18c-8.284 0-15 6.716-15 15s6.716 15 15 15h5.18c-2.97 28.815-14.404 55.153-31.76 76.493l-3.609-3.609c-5.858-5.859-15.355-5.857-21.213 0-5.857 5.858-5.857 15.355 0 21.213l3.609 3.609c-21.339 17.356-47.678 28.79-76.492 31.76v-5.179c0-8.284-6.716-15-15-15v50.95c96.625 0 175.236-78.61 175.236-175.236s-78.609-175.238-175.235-175.238z" fill="#525cdd"/></g></svg>